<svg width="24" height="17" viewBox="0 0 24 17" fill="none" xmlns="http://www.w3.org/2000/svg">
<g id="Capa 2">
<g id="ELEMENTS">
<path id="Vector" d="M22.9863 2.31999C22.2629 2.58829 21.5025 2.77512 20.7237 2.87586C21.0878 2.82207 21.6235 2.25723 21.8368 2.02861C22.1608 1.68375 22.4077 1.29007 22.565 0.867565C22.565 0.836186 22.6014 0.791358 22.565 0.768944C22.5466 0.760312 22.5261 0.755789 22.5052 0.755789C22.4843 0.755789 22.4637 0.760312 22.4454 0.768944C21.5997 1.16362 20.6997 1.46485 19.7666 1.6655C19.7341 1.67407 19.6995 1.67483 19.6665 1.66773C19.6335 1.66062 19.6034 1.6459 19.5794 1.62516C19.5067 1.55062 19.4286 1.48024 19.3453 1.41447C18.9647 1.1206 18.533 0.880076 18.0658 0.701702C17.4351 0.478717 16.7539 0.382148 16.0736 0.419286C15.4135 0.455214 14.7691 0.607804 14.1803 0.867565C13.6005 1.14143 13.091 1.51348 12.6823 1.96137C12.2524 2.42236 11.942 2.95735 11.772 3.53035C11.6319 4.07539 11.616 4.63871 11.7252 5.18898C11.7252 5.28312 11.7252 5.29657 11.6316 5.28312C7.923 4.81243 4.88017 3.67828 2.3939 1.24412C2.28467 1.13653 2.22745 1.13653 2.13903 1.24412C1.05713 2.66068 1.58248 4.90208 2.93484 6.00933C3.11689 6.15727 3.30415 6.30072 3.5018 6.4352C2.88175 6.39726 2.27684 6.25245 1.72292 6.00933C1.61889 5.95106 1.56167 5.98244 1.55647 6.09002C1.54173 6.23918 1.54173 6.38915 1.55647 6.5383C1.665 7.25313 1.99187 7.93029 2.50365 8.50053C3.01543 9.07078 3.69375 9.51364 4.46926 9.78385C4.65831 9.85364 4.8553 9.90622 5.05702 9.94075C4.48301 10.0381 3.89428 10.0533 3.31455 9.98557C3.18971 9.96316 3.1429 10.0214 3.18971 10.1245C3.95432 11.9177 5.61357 12.4646 6.83071 12.7694C6.99715 12.7918 7.1636 12.7918 7.35085 12.8277C7.35085 12.8277 7.35085 12.8277 7.31964 12.8546C6.96074 13.4194 5.50955 13.8004 4.84376 13.9977C3.62854 14.3739 2.33289 14.5177 1.04673 14.4191C0.843876 14.3922 0.797063 14.3966 0.745049 14.4191C0.693035 14.4415 0.745049 14.4908 0.802265 14.5356C1.06234 14.6835 1.32241 14.8135 1.59288 14.9391C2.39808 15.3176 3.24934 15.6183 4.13117 15.8356C8.69801 16.9205 13.837 16.1225 17.2647 13.1863C19.9591 10.8821 20.9057 7.70383 20.9057 4.52104C20.9057 4.40001 21.0774 4.32828 21.1762 4.26553C21.8579 3.80778 22.4588 3.2672 22.9603 2.66068C23.0471 2.57027 23.0917 2.45516 23.0851 2.33792C23.0851 2.27068 23.0851 2.28413 22.9863 2.31999Z" fill="#E0E0E0"/>
</g>
</g>
</svg>
