<svg width="26" height="21" viewBox="0 0 26 21" fill="none" xmlns="http://www.w3.org/2000/svg">
<g id="Logo 2">
<path id="Vector" d="M8.88701 10.3549C8.88701 8.45715 10.7695 6.91828 13.0922 6.91828C15.4149 6.91828 17.2984 8.45715 17.2984 10.3549C17.2984 12.2527 15.4149 13.7916 13.0922 13.7916C10.7695 13.7916 8.88701 12.2527 8.88701 10.3549ZM6.61322 10.3549C6.61322 13.2786 9.51385 15.6485 13.0922 15.6485C16.6705 15.6485 19.5712 13.2786 19.5712 10.3549C19.5712 7.43126 16.6705 5.06132 13.0922 5.06132C9.51385 5.06132 6.61322 7.43126 6.61322 10.3549ZM18.3136 4.85143C18.3134 5.0961 18.4021 5.33531 18.5684 5.5388C18.7347 5.7423 18.9711 5.90094 19.2477 5.99466C19.5243 6.08838 19.8287 6.11298 20.1225 6.06534C20.4162 6.0177 20.686 5.89997 20.8979 5.72703C21.1097 5.55409 21.254 5.33371 21.3126 5.09375C21.3711 4.8538 21.3412 4.60505 21.2268 4.37896C21.1123 4.15288 20.9183 3.9596 20.6694 3.82359C20.4204 3.68757 20.1277 3.61492 19.8283 3.61483H19.8277C19.4263 3.61498 19.0413 3.7453 18.7575 3.97716C18.4736 4.20902 18.3139 4.52346 18.3136 4.85143ZM7.99469 18.7463C6.76453 18.7005 6.0959 18.5331 5.65156 18.3917C5.06247 18.2043 4.64215 17.9811 4.20023 17.6206C3.75831 17.26 3.48476 16.9169 3.25643 16.4356C3.08322 16.0727 2.87831 15.5262 2.82239 14.5211C2.76122 13.4345 2.74901 13.108 2.74901 10.355C2.74901 7.60198 2.76223 7.27646 2.82239 6.18889C2.87841 5.18379 3.08484 4.6384 3.25643 4.27445C3.48577 3.79313 3.75892 3.44972 4.20023 3.08865C4.64154 2.72758 5.06146 2.50408 5.65156 2.31753C6.0957 2.176 6.76453 2.00858 7.99469 1.96289C9.32469 1.91291 9.72421 1.90293 13.0922 1.90293C16.4602 1.90293 16.8601 1.91374 18.1912 1.96289C19.4214 2.00866 20.0889 2.17732 20.5344 2.31753C21.1234 2.50408 21.5438 2.72808 21.9857 3.08865C22.4276 3.44922 22.7001 3.79313 22.9295 4.27445C23.1027 4.63733 23.3076 5.18379 23.3635 6.18889C23.4247 7.27646 23.4369 7.60198 23.4369 10.355C23.4369 13.108 23.4247 13.4336 23.3635 14.5211C23.3075 15.5262 23.1016 16.0725 22.9295 16.4356C22.7001 16.9169 22.427 17.2603 21.9857 17.6206C21.5444 17.9808 21.1234 18.2043 20.5344 18.3917C20.0902 18.5332 19.4214 18.7006 18.1912 18.7463C16.8612 18.7963 16.4617 18.8063 13.0922 18.8063C9.7227 18.8063 9.32428 18.7963 7.99469 18.7463ZM7.89022 0.108239C6.547 0.158218 5.62915 0.332236 4.82758 0.587077C3.99744 0.850249 3.29469 1.20332 2.59245 1.77617C1.8902 2.34903 1.45919 2.92411 1.13708 3.60237C0.825176 4.2577 0.612192 5.00722 0.551022 6.10469C0.488842 7.20389 0.474609 7.5553 0.474609 10.3549C0.474609 13.1546 0.488842 13.506 0.551022 14.6052C0.612192 15.7027 0.825176 16.4522 1.13708 17.1075C1.45919 17.7853 1.8903 18.3611 2.59245 18.9337C3.29459 19.5063 3.99744 19.8589 4.82758 20.1228C5.63066 20.3776 6.547 20.5516 7.89022 20.6016C9.23626 20.6516 9.66567 20.6641 13.0922 20.6641C16.5187 20.6641 16.9488 20.6524 18.2942 20.6016C19.6375 20.5516 20.5547 20.3776 21.3568 20.1228C22.1865 19.8589 22.8897 19.5065 23.592 18.9337C24.2942 18.3608 24.7243 17.7853 25.0473 17.1075C25.3592 16.4522 25.5732 15.7026 25.6334 14.6052C25.6945 13.5052 25.7088 13.1546 25.7088 10.3549C25.7088 7.5553 25.6945 7.20389 25.6334 6.10469C25.5722 5.00714 25.3592 4.25729 25.0473 3.60237C24.7243 2.92453 24.2931 2.34994 23.592 1.77617C22.8908 1.20241 22.1865 0.850249 21.3578 0.587077C20.5547 0.332236 19.6374 0.157393 18.2952 0.108239C16.9499 0.0582603 16.5197 0.0458069 13.0932 0.0458069C9.66667 0.0458069 9.23626 0.0574356 7.89022 0.108239Z" fill="#E0E0E0"/>
<path id="Vector_2" d="M8.88701 10.3549C8.88701 8.45715 10.7695 6.91828 13.0922 6.91828C15.4149 6.91828 17.2984 8.45715 17.2984 10.3549C17.2984 12.2527 15.4149 13.7916 13.0922 13.7916C10.7695 13.7916 8.88701 12.2527 8.88701 10.3549ZM6.61322 10.3549C6.61322 13.2786 9.51385 15.6485 13.0922 15.6485C16.6705 15.6485 19.5712 13.2786 19.5712 10.3549C19.5712 7.43126 16.6705 5.06132 13.0922 5.06132C9.51385 5.06132 6.61322 7.43126 6.61322 10.3549ZM18.3136 4.85143C18.3134 5.0961 18.4021 5.33531 18.5684 5.5388C18.7347 5.7423 18.9711 5.90094 19.2477 5.99466C19.5243 6.08838 19.8287 6.11298 20.1225 6.06534C20.4162 6.0177 20.686 5.89997 20.8979 5.72703C21.1097 5.55409 21.254 5.33371 21.3126 5.09375C21.3711 4.8538 21.3412 4.60505 21.2268 4.37896C21.1123 4.15288 20.9183 3.9596 20.6694 3.82359C20.4204 3.68757 20.1277 3.61492 19.8283 3.61483H19.8277C19.4263 3.61498 19.0413 3.7453 18.7575 3.97716C18.4736 4.20902 18.3139 4.52346 18.3136 4.85143ZM7.99469 18.7463C6.76453 18.7005 6.0959 18.5331 5.65156 18.3917C5.06247 18.2043 4.64215 17.9811 4.20023 17.6206C3.75831 17.26 3.48476 16.9169 3.25643 16.4356C3.08322 16.0727 2.87831 15.5262 2.82239 14.5211C2.76122 13.4345 2.74901 13.108 2.74901 10.355C2.74901 7.60198 2.76223 7.27646 2.82239 6.18889C2.87841 5.18379 3.08484 4.6384 3.25643 4.27445C3.48577 3.79313 3.75892 3.44972 4.20023 3.08865C4.64154 2.72758 5.06146 2.50408 5.65156 2.31753C6.0957 2.176 6.76453 2.00858 7.99469 1.96289C9.32469 1.91291 9.72421 1.90293 13.0922 1.90293C16.4602 1.90293 16.8601 1.91374 18.1912 1.96289C19.4214 2.00866 20.0889 2.17732 20.5344 2.31753C21.1234 2.50408 21.5438 2.72808 21.9857 3.08865C22.4276 3.44922 22.7001 3.79313 22.9295 4.27445C23.1027 4.63733 23.3076 5.18379 23.3635 6.18889C23.4247 7.27646 23.4369 7.60198 23.4369 10.355C23.4369 13.108 23.4247 13.4336 23.3635 14.5211C23.3075 15.5262 23.1016 16.0725 22.9295 16.4356C22.7001 16.9169 22.427 17.2603 21.9857 17.6206C21.5444 17.9808 21.1234 18.2043 20.5344 18.3917C20.0902 18.5332 19.4214 18.7006 18.1912 18.7463C16.8612 18.7963 16.4617 18.8063 13.0922 18.8063C9.7227 18.8063 9.32428 18.7963 7.99469 18.7463ZM7.89022 0.108239C6.547 0.158218 5.62915 0.332236 4.82758 0.587077C3.99744 0.850249 3.29469 1.20332 2.59245 1.77617C1.8902 2.34903 1.45919 2.92411 1.13708 3.60237C0.825176 4.2577 0.612192 5.00722 0.551022 6.10469C0.488842 7.20389 0.474609 7.5553 0.474609 10.3549C0.474609 13.1546 0.488842 13.506 0.551022 14.6052C0.612192 15.7027 0.825176 16.4522 1.13708 17.1075C1.45919 17.7853 1.8903 18.3611 2.59245 18.9337C3.29459 19.5063 3.99744 19.8589 4.82758 20.1228C5.63066 20.3776 6.547 20.5516 7.89022 20.6016C9.23626 20.6516 9.66567 20.6641 13.0922 20.6641C16.5187 20.6641 16.9488 20.6524 18.2942 20.6016C19.6375 20.5516 20.5547 20.3776 21.3568 20.1228C22.1865 19.8589 22.8897 19.5065 23.592 18.9337C24.2942 18.3608 24.7243 17.7853 25.0473 17.1075C25.3592 16.4522 25.5732 15.7026 25.6334 14.6052C25.6945 13.5052 25.7088 13.1546 25.7088 10.3549C25.7088 7.5553 25.6945 7.20389 25.6334 6.10469C25.5722 5.00714 25.3592 4.25729 25.0473 3.60237C24.7243 2.92453 24.2931 2.34994 23.592 1.77617C22.8908 1.20241 22.1865 0.850249 21.3578 0.587077C20.5547 0.332236 19.6374 0.157393 18.2952 0.108239C16.9499 0.0582603 16.5197 0.0458069 13.0932 0.0458069C9.66667 0.0458069 9.23626 0.0574356 7.89022 0.108239Z" fill="#E0E0E0"/>
</g>
</svg>
